<?xml version="1.0" encoding="utf-8"?>
<!-- Generator: Adobe Illustrator 21.1.0, SVG Export Plug-In . SVG Version: 6.00 Build 0)  -->
<svg version="1.1" id="Livello_1" xmlns="http://www.w3.org/2000/svg" xmlns:xlink="http://www.w3.org/1999/xlink" x="0px" y="0px"
	 viewBox="0 0 595.3 841.9" style="enable-background:new 0 0 595.3 841.9;" xml:space="preserve">
<style type="text/css">
	.st0{fill:#FEFEFE;}
	.st1{fill:#D5D5D5;}
	.st2{fill:#E6E6E6;}
	.st3{fill:#DBDCDC;}
	.st4{fill:#E2E2E2;}
	.st5{fill:#DDDFDE;}
	.st6{fill:#2D2B2A;}
	.st7{fill:#313131;}
	.st8{fill:#3F3E3E;}
	.st9{fill:#ECB98E;}
	.st10{fill:#503531;}
	.st11{fill:#2B2E32;}
	.st12{fill:#FE6061;}
	.st13{fill:#FD6060;}
	.st14{fill:#D5A77E;}
	.st15{fill:#2A1918;}
	.st16{fill:#EBBA8D;}
	.st17{fill:#D7514F;}
	.st18{fill:#D55152;}
	.st19{fill:#F8625F;}
	.st20{fill:#FA6160;}
	.st21{fill:#B89672;}
	.st22{fill:#525151;}
	.st23{fill:#3B3434;}
	.st24{fill:#D2D2D2;}
	.st25{fill:#8C9091;}
	.st26{fill:#DBDBDB;}
	.st27{fill:#D5D6D6;}
	.st28{fill:#C9C9C9;}
	.st29{fill:#614C3B;}
	.st30{fill:#634E3B;}
	.st31{fill:#ECBA8E;}
	.st32{fill:#C89D78;}
	.st33{fill:#BC9874;}
	.st34{fill:#BD9776;}
	.st35{fill:#EBBA90;}
	.st36{fill:#BA9877;}
	.st37{fill:#B89775;}
	.st38{fill:#B59473;}
	.st39{fill:#D9BEA6;}
	.st40{fill:#848685;}
	.st41{fill:#48392A;}
	.st42{fill:#FBFAF7;}
	.st43{fill:#F8526E;}
	.st44{fill:#D16164;}
	.st45{fill:#664C38;}
	.st46{fill:#674C37;}
</style>
<g id="WY7rO2.tif">
	<g>
		<g>
			<path class="st0" d="M141,592.9c-0.6-0.3-1.7,0.7-2-0.5c-0.2-1.1,0-2.3,0-3.5c0-131.3,0-262.6-0.1-393.8c0-3.8,1-4.3,4.4-4.3
				c103.5,0.1,206.9,0.1,310.4,0c3.4,0,4.4,0.5,4.4,4.3c-0.1,131.3-0.1,262.6-0.2,393.8c0,1.3,2.1,4.3-1.9,4
				c-1.7-1.9-1.3-4.3-1.4-6.6c-0.3-7.2,0.7-14.4-0.7-21.6c-0.6-19.2-0.3-38.4-0.2-57.6c0.1-5.7-4-10-10.8-11.2
				c-5.2-1.4-10.6,0-15.9-1.1c-4-1.6-6.1-5.4-9.5-7.9c-4.4-3.2-8.9-6.3-13.5-9.3c-3.4-2.3-7.1-4.1-10.9-5.7c-2.5-1-4.4-2.3-4.4-5.3
				c-0.5-8.4-4.5-14.7-11.5-19.2c-10.4-6.7-22.4-8.6-34.1-11.4c-1-0.2-2-0.3-2.9-0.6c-1.9-0.9-3.3-2-1.7-4.2c4-3.6,9.3-5,13.7-8
				c19.4-13.4,30.6-31.9,35.4-54.7c1-4.5,1.3-9.2,3.3-13.5c0.9-0.8,1.9-1.4,2.9-1.9c8.7-3.5,12-10.2,11.7-19.3
				c-0.2-8.3-1.3-16.5-1.5-24.8c0-3.9,1.4-7.9-1.1-11.6c-2.5-3.3-6.3-4.7-9.9-6.3c-1.9-0.8-4.3-1.2-4.8-3.8c1.6-19.6-4.4-37-15-53.2
				c-8.6-13.1-19.4-23.5-33.4-30.7c-22.4-11.6-45.6-13.5-69.7-6.7c-12.1,3.4-22.5,9.6-31.5,18.4c-7.4,7.3-14.7,14.7-19.4,23.9
				c-5.8,11.2-10.3,23.1-11,36c-0.2,4.1,0.4,8.3-0.4,12.4c-2,4-6.5,4.3-9.9,6.1c-4,2.1-6.3,4.7-5.6,9.4c-0.7,10.9-0.2,21.8-0.9,32.7
				c-0.2,3.1,0.4,6,2.5,8.4c3.7,4.2,7.1,8.8,11.4,12.5c1.5,1.3,1.7,3.2,1.9,5c3.3,24,14,43.8,33.4,58.6c3.7,2.8,7.6,5.3,11.9,7.2
				c2.9,1.3,6.6,1.8,7.8,5.5c-0.7,2.2-2.8,2.1-4.4,2.7c-8.4,1.3-16.7,2.7-24.8,5.5c-12.1,4.3-20.9,11.4-23.2,24.8
				c-0.2,1.3-0.7,2.6-1.3,3.8c-4.4,4.7-10.8,5.7-16.2,8.7c-7.3,3.2-12.6,9-18.2,14.3c-1.4,1.3-2.9,2.1-4.8,2.3
				c-5.2,0.5-10.6-0.7-15.7,1.5c-5.8,1.5-8.2,5.5-8.5,11.1c-0.5,1.9-0.9,3.9-0.8,5.9c0.3,15.4,0,30.8,0.3,46.3
				c0.2,9.6-0.1,19.2-0.4,28.8C142.3,590.3,142.1,591.7,141,592.9z"/>
			<path class="st1" d="M230,592.9c-28.3,0-56.7,0-85,0c-1.4-1.5-1.6-3.4-1.2-5.2c1.8-7.9,0.4-15.9,0.6-23.8
				c0.5-17.6,0.1-35.3,0.2-52.9c0-3.3-0.3-6.8,2.9-9.1c2.4-1,4.7-0.3,6.6,1.1c3.3,2.5,7.4,4.2,10.2,7.1c7.3,7.7,16.9,12.3,25.2,18.6
				c6.2,4.7,13.4,8.4,20.9,11c1.4,0.5,3.1,0.9,4,2c4.1,5.2,9.7,5.1,15.4,4.8c2-0.1,4.1,0.1,5.8,1.2c5.1,3.6,10.8,3.1,16.4,2.5
				c7.3-0.8,14.5-1.3,21.6,0.8c0.8,0.2,0.5-0.7,0.7-1.1c3-3.7,6.1-7.2,11.6-5.5c1.1,2.3-0.8,3-2.1,3.6c-7,3.3-9,9.1-8.7,16.2
				c0.1,1.6,0.4,3.3-0.9,4.7c-1.3,0.2-1.8-0.8-2.1-1.7c-0.8-2.4-2.5-2.7-4.8-2.4c-2.8,0.4-5.7,0-8.5,0.3c-5,0.4-9.6,0.1-14.4-2.2
				c-4.4-2.1-9.8-1.4-14.7,0c-2.2,0.6-4.2,0.9-6.2-0.5c-0.7-0.5-1.5-1.1-2.2-1c-5.8,1.3-11-1.9-16.6-2.2c-3.2-0.2-6.2-0.9-8.8-2.9
				c-1.9-1.4-4.1-1.5-6.1-0.1c-2.7,2-2.6,4.9-2.2,7.7c0.3,2.4,2.1,3.3,4.3,3.4c2.9,0.1,4.7,1.5,6.4,4c2.6,3.9,6.2,7.2,10.6,8.7
				c5.3,1.8,10.2,4.7,15.8,5.7C229.3,586.8,230.7,588.9,230,592.9z"/>
			<path class="st2" d="M454,592.9c-22.3,0-44.7,0-67,0c-3.5-5.3-9.7-5.3-14.9-7.3c-7.8-3-8.7-3.7-8.3-8.4
				c0.3-3.9,5.6-9.9,10.3-10.2c6.7-0.5,10.5-6.3,16.3-8.1c0.5-0.1,0.8-0.7,0.9-1.1c1.9-6.7,8.2-7.1,13.3-8.9
				c3.3-1.1,5.2-2.5,4.2-5.9c-1.2-4,0.7-6.4,3.6-8.4c2.4-1.6,4.5-3.3,5.5-6.2c0.7-2.1,2.7-2.8,4.6-3.5c2.4-0.9,4.7-2.1,5.6-4.6
				c2.7-7.4,9.7-9.7,15.6-13c4.7-2.6,5.2-2.5,1.1-6.2c-1.3-0.8-2.7-0.8-4.2-0.7c-5.7,0.8-11.3-0.1-17,0c-1.6,0-3.3,0.1-4.9,0
				c-2,0.1-4,0-6,0c-3.5,0.1-7,0.1-10.6,0c-1.2,0-2.4,0.1-3.6,0c-4.3-0.2-8.7,1.1-12.8-1.2c-0.5-0.9-0.5-1.8,0.3-2.6
				c1.3-0.9,2.8-1,4.3-1c16.3,0,32.6,0,49,0c1.3,0,2.6,0.5,4,0.5c5.2,1.2,8.6,4.4,10.4,9.4c0.2,1.2,0.1,2.4,0.1,3.6
				c0,16.6,0,33.3,0,49.9c0,2-0.2,4,0.4,6c0.2,8.1,0.9,16.2,0.6,24.4C454.9,590.5,455,591.8,454,592.9z"/>
			<path class="st3" d="M441,498.9c1.4,0.1,2.9-0.5,4,1c0.5,2.4-1.5,3.2-2.9,4.1c-7.5,4.5-14.2,10-22.6,13.3
				c-6.3,2.5-12,7.1-17.4,11.4c-3.5,2.8-4.2,8.1-7.7,11.5c-1.8,1.8-3.4,3.6-6,4c-4.2,0.6-6.5,4.4-10.2,6c-7.9,3.5-16,6.4-23.9,9.5
				c-4.2,1.7-8,4-12,6c-5.9,2.8-6.9,2.5-8.3-3.6c-2.8,3.3-3,7.3-2.1,11.5c0.5,2.2,0.3,4.4-1.4,6.1c-3.2,3.2-5.2,6.8-4.5,11.5
				c0.1,0.6-0.5,1.2-0.9,1.7c-31.7,0-63.3,0-95,0c0-4.4-3.2-5-6.5-6.1c-7.5-2.4-15.4-3.9-21.5-9.6c-2.3-2.1-5-3.4-5.9-6.8
				c-0.5-2-2.7-1.5-4.3-1.4c-2.6,0.1-5.1-0.4-5.5-3.2c-0.5-3.5-1.2-7.5,2-10.3c2.1-1.9,5.7-2.8,7.3-0.9c3.8,4.5,8.9,3.2,13.4,4.1
				c3.9,0.8,7.9,4.3,12.2,0.8c0.1-0.1,0.4-0.1,0.5,0c4.7,6.2,10.3,0.3,15.5,1.2c4,0.7,8.3-0.1,11.7,3c1.1,1,2.6,1.2,4.2,0.7
				c5.5-1.8,11.6,1.1,17.1-1.8c1-0.5,1.5,1,2,1.7c1,1.4,0.2,3.4,1.7,4.5c3.3,4.7,5.2,10.3,8.8,14.9c3,3.9,6.5,5.3,11.3,3.8
				c3.6-1.1,7.4-2.2,11,0.3c0.5,0.7-0.6,1.5-0.3,1.6c2.7,0.7,5.6,2.4,8.2-0.4c0.8-0.9,1.7-1.6,2.8-1.9c4.2-1.7,6.1-5.8,9.2-8.7
				c1.3-1.2,0.8-3.3-0.8-4.8c-1.2-1.1-3.3-2.1-2-4.4c2.2-2.3,3.4-9,2.3-11.5c-0.7-1.4-1.7-1.3-2.9-1.1c-1.3,0.3-2.7,0.8-3.2-1.2
				c1.4-2.9,1.8-5.9,0.2-8.9c0.3-1.1,1.2-1.5,2.2-1.4c1.2,0.3,2.1,1.2,3.1,1.9c1,0.6,2.2,2.1,2.9,1.6c5.8-3.6,10.8,2.4,16.6,0.9
				c5.4-1.3,11-2.3,16.6-3.2c4.5-0.7,9.1-3,13.5-5.5c8.7-4.9,14.3-12.6,21.4-19c5.5-5,12.1-8.7,18.5-12.7c1-0.6,2.2-1.2,3.3-1.2
				C426.1,508.4,432.7,501.6,441,498.9z"/>
			<path class="st4" d="M325,592.9c-1.4-5.8-0.1-10.7,4.8-14.4c1-0.7,1.4-1.9,1.1-3.1c-1.4-5.1-2-10,2-14.3c0.4-0.5,0.2-1.5,0.3-2.4
				c0.5,0.2,1,0.2,1.1,0.4c2.7,8.5,4.1,8.9,13.5,2.3c4-2.8,8.9-3.2,13-5.4c7.5-4.1,16.7-4.6,23-11.2c0.4-0.5,1-1.2,1.5-1.2
				c8.4-0.6,10.8-7.2,13.7-13.4c2.4-5.1,8.1-5.9,12.2-8.9c10-7.3,22-11.3,31.7-19.2c0.7-0.6,1.4-1.4,2.1-2c2.6,0.2,3.5,2,4.3,4.2
				c0.9,2.4,0.8,4.1-2.3,3.7c-3.2-0.3-5.3,1.5-7.6,3.2c-4.4,3.3-10.1,5.3-11,11.8c0,0.1-0.2,0.3-0.3,0.4c-6.5,1.7-9.2,7.9-14,11.6
				c-2.8,2.2-6.1,3.8-3.6,8.6c1.6,3.1-1.2,6.2-5.1,6.4c-4,0.3-6.9,3.5-10.8,4c-0.3,0-0.7,0.5-0.7,0.7c0.1,7.3-7.7,6.3-10.9,10.1
				c-2,2.4-5.1,3.1-8.5,3.3c-4.3,0.2-6.9,3.9-9.1,6.9c-2.3,3.1,0,6.9,3.8,8.1c4.7,1.5,9.4,3.2,14.1,4.7c2.6,0.8,3.9,2.4,3.8,5.1
				C366.3,592.9,345.7,592.9,325,592.9z"/>
			<path class="st5" d="M149,501.9c-2.9,1.7-3,4.5-3,7.4c0,15.2,0.2,30.3,0,45.5c-0.2,12.7,0.4,25.4-1,38.1c-0.7,0-1.3,0-2,0
				c-1.2-1.4-1-3.1-1-4.8c0.1-25.6-0.1-51.3,0-76.9c0.2-1.8,0.8-3.5,1.1-5.3c0.9-5.3,4.2-8.4,9.4-9.6c1.9-0.7,3.8-0.9,5.9-0.9
				c17,0.1,34.1,0.1,51.1,0.1c1.8,0,3.7-0.2,5.3,1c0.8,0.8,0.8,1.7,0.3,2.7c-6.5,2.6-13.3,0.9-19.9,1.2c-9.6,0.2-19.3,0.1-28.9,0.1
				C160.5,500.4,154.7,500.3,149,501.9z"/>
			<path class="st6" d="M143.1,510.4c0.9,9.4,0.1,18.9,0.1,28.3c0.1,18.1-0.1,36.1-0.2,54.2c-0.7,0-1.3,0-2,0
				c0.1-27,0.1-54.1,0.3-81.1c0-2,0.5-3.9,0.8-5.9C144.9,506.9,143,508.9,143.1,510.4z"/>
			<path class="st7" d="M454,592.9c-0.4-7.4-0.7-14.8-1-22.2c-0.1-1.8-0.2-3.7,0.9-5.2c-0.9-7.6-0.2-15.2-0.4-22.8
				c-0.3-11.6,0.4-23.2-0.4-34.7c-0.1-0.9-0.3-1.8-0.4-2.7c-0.3-0.6-0.2-1.2,0.6-1.3c0.8-0.1,1.4,0.5,1.9,1.1
				c0,19.8-0.1,39.6-0.1,59.4c0.6,9.5,0.8,19.1-0.1,28.6C454.7,592.9,454.3,592.9,454,592.9z"/>
			<path class="st8" d="M455,592.9c0-9.5,0.1-19,0.1-28.6c1.4,7.7,0,15.5,0.6,23.2c0.1,1.8,0.2,3.6,0.3,5.4
				C455.7,592.9,455.3,592.9,455,592.9z"/>
			<path class="st9" d="M207,287.9c-2-16.5,2.5-31.8,9.4-46.3c6-12.7,15.8-23,26.8-31.8c22.7-18.3,49-22.1,76.1-15.4
				c33.2,8.2,55.2,29.8,66.5,62.2c3,8.5,4.1,17.1,4.1,25.9c0,1.8,0.1,3.7-1,5.3c-0.8,0.8-1.8,1.1-2.7,0.8
				c-6.9-1.7-14.1-1.9-20.9-3.9c-12.2-9.3-28.6-8-40,0.8c-7.4,3.2-15.2,5.7-22.9,8.1c-3,1-6.4,0.9-9.4-0.2
				c-6.9-2.4-13.8-4.7-20.4-7.9c-9.7-8.2-24.9-9.6-36.7-3.2c-1.4,0.8-2.8,1.8-4.4,2.3c-6.7,1.5-13.7,2-20.4,3.7
				C209.8,288.9,208.3,289.1,207,287.9z"/>
			<path class="st10" d="M260.2,432.9c-8.5-4.8-17.4-8.7-24.9-15.3c-16.9-14.8-26.2-33.5-29.1-55.5c-0.2-1.5,0.1-3-1.1-4.2
				c-0.7-1.1-1.4-2.3-1.4-3.7c-0.1-12.3-0.8-24.7,0.4-37c1.7-2.8,2.6-1,3,0.7c0.6,2.9,1,5.9,1.1,8.8c0.2,3.7,1.3,6.7,4.1,9.1
				c0,1.8-0.5,3.7,0,5.6c0.9,7.6,1.5,15.2,4.7,22.3c4.5,9.9,12.4,15.8,22.5,18.9c5.7,1.8,7.2,0.8,9.4-4.8c3.4-8.6,7.8-16.2,17-19.7
				c3.3-1.3,6.6-2.3,10.1-2.5c7.1,0.1,14.2-0.1,21.3,1c5.3,0.8,10.7-1.7,16.3-1c1.8,0.2,3.6,0,5.5,0c6.6,0.1,12.2,2.8,17.7,6
				c4.7,2.8,6.6,7.3,8.5,11.9c3.9,9.4,4.7,13,18.4,6.3c13.7-6.6,18.1-18.7,20-32.4c0.3-2.1,0-4.3,0.4-6.5c0.9-2.5,0.3-5.1,0.5-7.6
				c2.4-2.7,3-6,3.9-9.4c0.3-1.2,0.3-4.6,3.4-2.1c0.8,11.3,1.8,22.7-0.5,34c-2.2,13.8-5.1,27.3-12.1,39.8
				c-9.4,16.7-22.7,28.8-40.3,36.3c-5.1,5-12,5.4-18.3,6.8c-18.9,4.2-37.5,2.9-55.9-3.2C263,435,261.2,434.7,260.2,432.9z"/>
			<path class="st11" d="M211.8,337.1c-6.7-3.7-4.5-10.5-5.8-16.2c-0.4-1.7,0.7-3.7-1.1-5.1c-1.9-4.1-4.2-7.2-9.4-7.1
				c-3.3,0-3.9-3-4.2-5.8c-1.3-5.3,1.2-8.2,6-10.2c3.3-1.4,7-2.2,9.8-4.8c8.2-1.7,16.4-3.4,24.8-4.2c13.8-2.3,27.6-2.8,41.3,1
				c6.1,2.4,12.2,5,18.5,7.1c4.3,1.4,8.8,1.5,13.2-0.1c6.7-2.3,13.3-4.7,20-7.1c3.2-1.6,6.7-2.1,10.1-2.1
				c10.1-0.1,20.2-1.4,30.2,0.9c7.9,1.4,15.9,2.9,23.8,4.3c3.4,3,8.2,3.1,11.8,5.8c1.3,1,2.9,1.5,3.4,3.3c0.5,1.1,0.4,2.2,0.6,3.4
				c1,5.5-0.6,7.8-6.3,8.8c-2.2,0.4-4.9-0.2-5,3.3c-0.3,3-0.2,6-2.3,8.5c-1.7,1.6-2,3.9-1.9,5.8c0.1,3.5-1.7,5.6-4,7.6
				c-1,6.4-6.2,9.5-11,11.9c-16.1,8-32.8,8.6-49.6,2c-6.9-2.7-11-8.3-14.7-14.3c-3.5-6.5-3.5-13.5-3.3-20.5c0.1-1.7-0.6-2.9-2.3-3.3
				c-4.1-1.1-8.2-1.1-12.3,0c-1.9,0.5-2.6,1.8-2.6,3.7c0,3,0.1,6-0.1,9c-0.5,2.9-1.4,5.7-2.6,8.5c-8.3,14.9-21.6,20.7-37.9,21.1
				c-10.2,0.3-20.3,0.1-29.3-5.7C216,344.3,211.8,342.3,211.8,337.1z"/>
			<path class="st12" d="M206,469.8c2.8-21,13.8-27.2,35.1-32.9c4.8-1.3,9.8-1.5,14.7-2.2c2.6-0.9,4,0.1,4.5,2.7
				c0.3,1.6,0.3,3.2,0.2,4.8c-0.2,8.3-0.1,16.6,0,24.9c0.1,7.6,3,14.2,7.3,20.3c1.2,1.7,3.1,3.2,2.1,5.7c-1.6,1.2-3.5,1-5.3,1
				c-13.6,0-27.3-0.1-40.9,0.1c-3.8,0-6.7-1.2-9-4.2C210.2,484,206.4,477.6,206,469.8z"/>
			<path class="st13" d="M340,434.8c13.9,2,27.7,4.6,39.4,12.9c6.5,4.6,11,10.6,10.2,19.2c2.8,10.2-4.2,16.8-8.8,24.2
				c-1.2,1.9-3.2,3-5.5,3c-15.8,0.1-31.6,0.4-47.4-0.1c-0.5,0-0.9-0.3-1.4-0.5c-1.7-1.4-0.5-2.9,0.4-3.9c9.3-10.7,9.8-23.7,9.7-36.9
				c0-4.3,0.1-8.5-0.4-12.8C335.9,437.6,334.8,433.5,340,434.8z"/>
			<path class="st14" d="M340,434.8c-4.1,0.2-2.9,3.6-2.6,5.3c0.7,4.2,0.4,8.4,0.3,12.6c-3.7-2.4-1.8-5.7-1.6-8.6
				c0.6-0.6-0.9-0.5-0.2-0.4c0.3,0.1,0.4,0.3,0.1,0.5c-5.9,3.9-12.8,5.6-19.5,6.7c-18.3,3-36.3,2-53.8-4.9c-1.7-0.7-2.8-1.7-3.6-3.2
				c-1.2-2.7,2.6-7.3-3.2-8.2c1.1-1.4,3.4,0,4.4-1.8c13.2,3.9,26.6,7.4,40.5,6.9c13.1-0.5,25.9-3,38.2-7.8
				C337.8,433.5,339.5,433.9,340,434.8z"/>
			<path class="st15" d="M215,497c-19.8-0.1-39.5-0.2-59.3-0.2c-1.2,0-2.5,0.6-3.7,0.9c-0.8-0.3-1.7-0.6-1-1.7
				c5.6-3.4,11.7-1.2,17.5-1.7c6.1-1,12.2-0.6,18.3-0.6c9.3,0,18.7-1.4,27.8-0.5c16.4,1.6,32.8,0.3,49.2,0.9c2,0.1,4,0.2,5.9-0.5
				c0.9-0.3,1.8-0.8,2.7-0.8c17.5,0.1,35-0.6,52.5,0.3c4.2,1.2,8.5,1.3,12.8,0.9c11.4-0.8,22.9,0.3,34.3-0.6
				c10.9-0.8,21.8-0.9,32.7-0.9c5.3-0.2,10.5,0,15.8,0c1.9,0,3.6,0.5,5.2,1.5c6,1.5,12.3-1.3,18.2,1.1c0.6,0.7,2,0.2,2,1.5
				c0,0.8-0.6,0.9-1.2,0.6c-19.6-0.7-39.2-0.4-58.8-0.1c-2,1.7-4.4,1.4-6.7,1.4c-12.8,0-25.6,0-38.4,0c-39.4,0-78.8,0-118.3,0
				C220.1,498.3,217.3,498.8,215,497z"/>
			<path class="st16" d="M391.1,320.9c0.3-3,0.7-6,1-9c3.8-3.1,8.2-3.5,12.9-3c1.5,12.1,3.3,24.2,0.4,36.3c-1,4.3-4.9,5.6-7.9,7.7
				c-1.8,1.3-4.1,2-6.2,3C391.3,344.2,391.2,332.6,391.1,320.9z"/>
			<path class="st16" d="M191.2,303c0.8,2.9,2.4,5.1,5.8,4.9c5.7-0.3,8,2.6,7.8,8c0,14,0.1,28,0.1,41.9c-5.6-3.6-8.9-9.3-13.3-14
				c-1.4-1.5-1.8-3.9-1.7-6.1C190.9,326.1,189.9,314.5,191.2,303z"/>
			<path class="st17" d="M270,493.9c-1.4,0.8-2.9,0.7-4.4,0.7c-31.6,0-63.2,0-94.8,0c-0.8,0-1.6-0.3-2.4-0.4
				c1.2-0.8,2.4-1.5,3.6-2.3c8.4-0.9,16.9,0.2,25.8-0.6c-1.4-3.7-3.5-6.3-5.6-9.1c-1-1.4-3-2.3-2.5-4.6c5.4-2.6,10.8-5.2,16.2-7.8
				c2,4.6,3.8,9.2,6.1,13.7c2.9,5.7,6.3,10.1,14.3,9.7c14.5-0.8,29-0.3,43.5-0.3c0.3,0.2,0.5,0.4,0.4,0.6
				C270.2,493.7,270.1,493.9,270,493.9z"/>
			<path class="st18" d="M405,493.9c-19,0.1-38,0.1-56.9,0.2c-7.6,0-15.3,1.1-22.9-0.2c-0.5-0.4-0.5-0.8-0.1-1.3
				c0.5-0.3,1-0.2,1.3,0.3c15.5,0,30.9-0.1,46.4,0c4.1,0,6.9-0.9,8.5-5.1c1-2.6,2.8-4.9,4.7-7c3.8-4.1,2.5-9.3,3.7-13.9
				c0.2,2.3,1.7,3.2,3.7,3.9c4.2,1.4,8,3.7,11.7,6.2c1.3,2.3-0.6,3.7-1.6,5.3c-1.7,2.9-3.8,5.6-5.7,8.4
				C400.1,492.9,404,490,405,493.9z"/>
			<path class="st19" d="M405,493.9c-2.1-2-4.8-0.6-7.1-1c-0.8-0.1-1.8-0.2-2.2-0.7c-0.8-1,0.4-1.7,1-2.5c3.2-3.9,6.2-8,8.4-12.7
				c7.5,4.8,15.4,9.2,20.8,16.7C418.9,493.9,411.9,493.9,405,493.9z"/>
			<path class="st20" d="M189.8,477.7c4.5,3.5,6.7,8.8,10.3,13.1c0.8,1,0.5,2.1-0.8,2.1c-9.1-0.3-18.2,1.3-27.2-0.9
				C177.3,486.2,182.5,480.6,189.8,477.7z"/>
			<path class="st21" d="M405,308.9c-4.3,1-8.6,2-12.9,3c-0.7-2.7,0.9-3.5,3.1-3.9c9.3-2,9.3-2,8.9-11
				C406.9,300.8,406.2,304.8,405,308.9z"/>
			<path class="st22" d="M444.8,497c1.8-1.5-1-1.2-0.8-2.1c6.2,0.5,9.2,4.8,11.2,10c-0.8-0.2-1.7-1.3-2.4,0.2
				C451.1,501.5,448.4,498.8,444.8,497z"/>
			<path class="st23" d="M151,495.9c0.3,0.6,0.7,1.2,1,1.7c-6.7,1.7-7.9,7.2-8.9,12.8c-0.3-1.5,0.4-3.3-1-4.5
				C142.8,500.5,145.2,496.7,151,495.9z"/>
			<path class="st24" d="M149,501.9c2.2-2.4,4.8-3.1,8-3.1c12.7,0.2,25.3,0.1,38,0.1c3.2,5.7,5.4,12.1,11.2,16.1
				c1.3,0.9,2.4,3.2,2.1,4.9c-0.9,5.4,2.7,5.8,6.3,7.8c8.1,4.4,16.5,4.6,25.1,4.3c0.8,0,1.7-0.1,2.5,0.2c7.3,3.4,15.1,2.5,22.6,2.2
				c7.3-0.3,14.2,1.7,21.2,2.6c5.1,0.6,9.2-0.5,13-3.6c3.4-2.8,7-5.1,11.4-5.9c2.1-0.4,3.5-1.8,4.4-3.7c1.9-3.7,5.1-5.5,9-5.1
				c9.5,0.9,18.4-1.9,27.6-3.3c1.5-0.2,2.9-0.7,4.2-1.6c3.8-2.8,7.9-4.8,12.2-6.7c4.1-1.8,6.3-6.4,10.6-8.1c0.6-0.2,1.1-0.7,1.8-0.9
				c2-0.2,4-0.6,5.8,0.8c4.3,0,8.6,0,13,0c1.4,2.7-0.8,3.9-2.2,5.4c-4.7,4.8-10.7,7.8-16.1,11.6c-4.3,3-9.2,5.3-13.4,8.5
				c-8.3,6.3-17.9,5.4-27.4,5.2c-4.1-0.1-8.1-1.5-12.2,0.3c-2.7,1.2-4.4,2.8-4.4,5.9c0,1.2-0.1,2.3-0.4,3.5
				c-1.4,5.9-2.9,6.9-8.7,5.7c-2.6-0.5-5.3-0.8-7.8-1.6c-1.5-3.2,2.1-4.3,2.6-6.7c0.2-1.1,1.4-2.2,0.5-3.2c-1.1-1.3-2.5-0.2-3.5,0.4
				c-4.4,2.7-6.8,6.5-6.8,11.8c-1.2,1.7-3,1.4-4.8,1.4c-2.8-0.6-5.9,0.1-8.3-2.1c-3.8-0.1-7.4,0.6-9.4,4.3c-1.9,3.4-5.6,2.8-7.8,2.3
				c-8.5-1.9-16.9,1-25.3,0.4c-2.4-0.2-4.8,0-6.6-1.7c-3.7-3.3-8.2-2.2-12.4-2.3c-3.7-0.1-6.6-0.3-9.5-3.8
				c-2.8-3.4-7.8-4.7-12.2-6.2c-1.2-0.4-2.9-0.3-3.8-1c-6.1-5.5-13.4-9.3-20.1-13.7c-9.2-6-17-13.7-26.1-19.7
				C151.8,502.7,149.9,503.4,149,501.9z"/>
			<path class="st25" d="M286.1,544.9c2.6,0.3,5.2,0.6,7.8,1c2.2,1.1,4.3,1,6.6,0.1c4.7-1.8,9.7-1.7,14.7-1c1.6,0.2,2.8,0.8,3.6,2.3
				c3.3,2.5,3.7,5,0.1,7.6c-1.4,4.9-3,9.9,1,14.5c6.1,7.3,6.1,7.3,0,15.1c-1.1,1.4-1.9,3.2-4,3.4c-0.7,0.7-1.3,1.3-2,2
				c-3.2,1.4-6.3,2.2-9-0.9c-2.7-2-5.7-1.4-8.6-0.7c-9.3,2.4-11,2.1-16.5-6c-2.7-4-5.7-8.1-6-13.3c0-2.8-0.1-5.6-0.1-8.3
				c0.1-6.7,3.7-11,9.5-13.7C284.5,546.4,285.6,546.1,286.1,544.9z"/>
			<path class="st26" d="M441,498.9c-6.8,4-12.7,9.9-21.4,10.1c-7,0.1-11.4,5.7-16.9,8.9c-6.9,4-11.7,10.4-17.3,16
				c-2.6,2.7-4.7,6-9,6.5c-1.4,0.1-2.7,1.2-3.4,2.7c-0.6,1.3-1.8,2-3.1,2.4c-10.4,3-21.1,4.6-31.8,6.3c-1.6,0.2-2.4-0.8-3.5-1.5
				c-2.1-1.3-3.5-2.7-6,0.3c-2.5,2.9-3.5-2-5.5-2.6c1.3-6.3,6-9.8,10.8-13c3-2,6.3-1,8.6,1.5c5,5.3,11.7,2.3,17.4,4
				c0.6,0.2,1.4-0.4,1.6-1c1.5-4.5,5.8-4.7,9.1-6.6c5.2-3.1,10.3-6.7,14.8-10.8c4.5-4.2,9.7-7.5,14.3-11.5c2.1-1.8,4.4-3.9,7.2-4.3
				c4.5-0.6,6-3.2,6.1-7.2c2,0,4,0,6,0c1.7,3,3.3,1.4,5,0C429.7,498.8,435.3,499.8,441,498.9z"/>
			<path class="st27" d="M413,498.9c2.3,5.6,1.7,6.8-4.6,7.9c-1.6,0.3-2.8,1-4,1.9c-6,4.4-11.7,9.2-17.6,13.6
				c-6.3,4.7-11.4,11.6-20.1,12.9c-1.3,0.2-2.7,1-2.9,2.4c-0.9,5.1-3.6,5.1-7.6,3.4c-1.6-0.7-3.6-0.3-5.4-0.1
				c-3.4,0.3-6-0.6-8.4-3.1c-3.9-4-6.5-3.7-10.7,0c-3.3,3-5.9,6.6-8.5,10.1c-1-0.4-1.6-1-2-2c-0.2-4.3,1.7-8.1,2.9-12
				c1.2-3.7,4.9-5.2,8.9-5.2c4.4,0,8.5,1.4,12.8,2c6.6,1,12.3,0.9,18.7-3.3c9.7-6.4,19.3-13,29.1-19.3c3.8-2.4,7-5,8.6-9.3
				C405.7,498.9,409.3,498.9,413,498.9z"/>
			<path class="st1" d="M402,498.9c0.6,4-1.4,6.3-4.7,8.4c-7.4,4.7-14.7,9.7-21.9,14.7c-2.9,2-5.5,4.3-9,5.2c-0.5,0.1-1,0.3-1.3,0.7
				c-7.3,8.7-16.1,4.6-24.6,3.1c-4.7-0.8-9.5-2.5-13.8,1.1c-3.4,2.9-3.2,7.5-4.7,11.2c-0.4,0.9-0.1,2-1.1,2.6c-1,0-1.8,0.3-2.2,1.3
				c-6.1-2.3-12.3-1.6-18.2,0.2c-2.8,0.9-4.7,0.4-6.6-1.5c1.7-0.3,3.6,0.7,5-1c2-1.5,4.2-2.3,6.8-2.1c3.2-0.7,6.3,0.1,9.2,1.1
				c5,1.8,6-1.7,6.8-5c0.8-3.3-0.6-7.1,3.2-9.4c4.4-2.6,9.3-2.4,13.9-1.4c4.4,1,8.5,1,12.7-0.6c0.9-0.4,1.9-0.9,2.9-0.3
				c3.6,2,6-0.1,8.9-2c8.7-5.8,17.8-11.1,26.5-17c3.6-2.4,7.8-4.6,9.2-9.4C400,498.9,401,498.9,402,498.9z"/>
			<path class="st27" d="M386,498.9c-2,0-4,0-6.1,0c-1.6,0.9-3.4,1.4-5.2,1.5c-10,0.2-20,0.2-30,0c-1.2,0-2.3-0.3-3.3-0.9
				c-1-0.7-1.1-1.6-0.4-2.6c15-0.4,30-0.5,45,0C386,497.6,386,498.2,386,498.9z"/>
			<path class="st8" d="M453.2,507.9c0.8,0.8,0.8,1.8,0.8,2.8c0,18.3,0,36.5-0.1,54.8c-1.3-13.2-0.4-26.4-0.8-39.7
				C453,519.8,453.2,513.9,453.2,507.9z"/>
			<path class="st27" d="M424,498.9c0,2.8-2.3,3.4-4.1,3.4c-3.4,0-0.1-2.4-0.9-3.4C420.7,498.9,422.3,498.9,424,498.9z"/>
			<path class="st26" d="M319,569.9c-4.2-5.5-4.2-9.2-0.1-15.1c0.5,2.9,1.7,0.7,2.6,0.4c3.1-0.9,4.7,0.1,4.4,3.6
				c-0.2,2.4-0.2,4.9,0,7.4c0.3,3.1-1.2,4.1-4,3.8C321,570.5,320,569.6,319,569.9z"/>
			<path class="st4" d="M319,569.9c1-3,2,0.4,3,0c0.7,1.6,2.2,2.3,3.5,3.4c2.3,1.9,2.4,5,0.6,6.5c-2.8,2.5-5.5,5.2-7.8,8.2
				c-0.7,0.9-1.7,0.9-2.4-0.2c2.2-2.6,4.2-5.4,6-8.3c2-3.1,2.9-5.4-1.1-7.4C320.1,571.7,319.6,570.6,319,569.9z"/>
			<path class="st4" d="M305,588.9c2.8,1.7,6,0.7,9,0.9c-3.3,2.9-7.8,2.8-10.1-0.3c0-0.1,0.1-0.3,0.2-0.4
				C304.4,589,304.7,589,305,588.9z"/>
			<path class="st28" d="M341,498.9c13,0,26,0,39,0c-5.8,3.5-9.2,10.4-16.8,11.5c-1.3,0.2-2.5,1.6-3.7,2.4c-3.2,2.4-7,3.2-10.7,4.4
				c-8.9,2.9-17.9,2.4-26.9,2.8c-2.2,0.1-4.8,1.2-5.2,3.2c-0.9,4.5-4,5.6-7.6,6.1c-3.2,0.4-5.8,2-7.7,4.1
				c-6.6,7.3-14.9,5.4-22.7,3.9c-3.9-0.8-7.8-1.2-11.7-1.4c-8.5-0.6-16.9,0.8-25.5-2.1c-4.3-1.5-10.3-0.6-15.5-0.8
				c-3.6-0.1-6.9-0.6-9.6-3.2c-1.6-1.5-3.8-2-6-1.9c-2.8,0.1-4.4-0.5-3.4-4.1c1.4-5.2-1.4-10.1-6.5-12c-1.5-0.6-3.2-1.5-3-2.9
				c0.4-3.7-2-6.6-2.3-10c6.7,0,13.3,0,20,0c1.8-1.4,3.8-1,5.8-1c38.1,0,76.3,0,114.4,0C337.2,497.9,339.2,497.5,341,498.9z"/>
			<path class="st1" d="M341,498.9c-42,0-84,0-126,0c0-0.6,0-1.3,0-1.9c19.4-0.1,38.8-0.2,58.3-0.2c22.6,0,45.2,0.1,67.7,0.2
				C341,497.6,341,498.2,341,498.9z"/>
			<path class="st29" d="M365.1,283.5c-4,0.9-8.1,0.4-12.1,0.3c-9.4-0.2-18.8,0.4-28.2,0.9C333.1,275.8,355,274,365.1,283.5z"/>
			<path class="st30" d="M273.2,284.8c-13.7-1.4-27.5-0.7-41.3-1C244.6,273.6,264.9,276.2,273.2,284.8z"/>
			<path class="st31" d="M285.8,330.6c0.8-2.6,1.5-5.2,2.3-7.7c0.8-1.9,0.3-3.9,0.4-5.9c0.1-4.9,1.3-6.6,6.1-7.3
				c4.7-0.6,9.6-1.1,13.3,3.2c0.2,7.1,0,14.3,3.2,20.9c0.3,3.2,2.8,5.1,4.6,7.5c1.2,1.6,3.3,3.3,0.6,5.4c-8.9,1.3-17.9,0.3-26.9,0.6
				c-0.5,0-1,0-1.5,0c-2.3,0.2-5.4-1-6.5,1.2c-1.4,2.5,2,3.7,3.2,5.6c0.3,0.4,0.5,0.9,0.6,1.6c-3.2,1.6-6.8-0.1-10.1,1
				c-13.2,1.9-21.3,9.5-25.1,22.2c-1.7,5.8-3.6,6.6-9.6,5.2c-15.6-3.6-26-15.6-28.2-32.8c-0.4-3.4-1.5-6.8-1-10.4
				c1.3-0.5,2.2,0.4,3,1.2c7.1,7.3,15.7,10.7,25.8,10.4c9.1-0.3,18.2,0.8,26.9-3.4C275.3,345.1,282.2,339.6,285.8,330.6z"/>
			<path class="st16" d="M281.6,370.8c4.5,0.3,9.8-0.3,14.8-2.2c0.9-0.4,1.8-0.9,2.8-0.3c6.1,3.1,12.7,3.1,19.1,2.4
				c16.4-1.7,23.2,18.8,17.8,29.1c-3,5.9-7.2,10.8-12.7,14.5c-5.3,3.6-8.9,3.3-13.9-0.8c-6.9-5.9-14.6-6.2-21.9-0.9
				c-7.8,5.7-13.3,5.1-20.1-2.2c-1.7-1.8-3.4-3.7-4.9-5.6c-6.7-8.5-5.4-23.4,2.8-30.5C270,370.3,275.5,370.8,281.6,370.8z"/>
			<path class="st31" d="M385.3,341.2c-0.4,11.6-2.3,22.9-10.4,31.9c-5.2,5.8-11.9,9.3-19.5,11.3c-3.9,1-6.9,0.4-8.4-3.8
				c-0.4-1.2-1.4-2.3-1.7-3.6c-3.5-13-12.8-18.6-25.3-20.3c-2.9-0.7-5.9,0.2-10-0.9c4.5-2.5,4.8-7.6,9.1-9.4c0.3,0,0.7,0,1,0.2
				c9.7,6.3,20.7,6.2,31.7,6.1c11.2-0.1,20.8-3.7,28.9-11.3c1-0.9,1.8-2.1,3.1-2.4C385.9,338.6,385.4,340,385.3,341.2z"/>
			<path class="st32" d="M319,346.8c-3.1,2.2-2.2,7.6-7.7,8.3c3.4,1.5,6.3-0.3,8.7,1.5c-7.6,0.1-15.3,1.9-22.4,1.5
				c-7.4-0.4-15-1.1-22.5-1.4c2.7-1.9,5.9-0.3,9.2-1.3c-1.5-1.4-3.2-2.6-4.4-4.2c-0.9-1.1-2-2.5-1.2-4.1c0.8-1.6,2.6-1.3,4-1.3
				c11.5,0,23,0,34.5,0C318.2,345.2,318.9,345.4,319,346.8z"/>
			<path class="st33" d="M319,346.8c-0.4-0.7-1.1-0.9-1.9-0.9c-0.6-2.5-2.6-4-4-5.8c-1.3-1.7-3.6-3.4-2-6.2
				c12.9,16.7,34.8,22.2,55.4,14.4c7.7-2.9,14.3-6.9,18.8-14c1.2,2.3,1,4.6,0,6.9c-1.2-3.5-2.4-0.1-2.7,0.3
				c-6.5,6.1-13.8,11.3-22.9,11.9C345.7,354.3,331.3,356.4,319,346.8z"/>
			<path class="st34" d="M285.8,330.6c-1.7,9.6-8.8,14.9-16.6,19c-13,6.7-27.1,5.4-40.8,2.9c-6.8-1.2-12.7-5.9-17.3-11.6
				c0.2-1.3-2.7-3.2,0.7-3.8c3.7,7.3,10.5,10.8,17.8,12.3c12.3,2.7,24.7,2.6,36.8-1.8C275.1,344.4,281.1,338.3,285.8,330.6z"/>
			<path class="st9" d="M279,303.9c7.9,17.2-0.2,34.3-18.4,38.9c-10.7,2.7-21.5,2.7-32.1-0.1c-7.3-1.9-12.4-6.8-14.5-13.9
				c-2.2-7.5-2-15.3-0.2-23c4.4-6.6,11.1-8.6,18.4-9.4c13.6-1.4,27.2-2.2,40.4,2.9C275.2,300.2,277.5,301.5,279,303.9z"/>
			<path class="st35" d="M382.1,306.9c6,19.3-4,34-25,37c-8.6,1.2-17.2,1.2-25.7-1c-8.3-2.2-13.7-7.4-15.6-15.7
				c-1.6-7-1.6-14.2,0.4-21.2c2.4-4.3,6-6.9,10.8-8.1c14.8-3.4,29.6-3.6,44.4,0.2C376.2,299.3,380.2,301.9,382.1,306.9z"/>
			<path class="st36" d="M382.1,306.9c-5.5-7.6-14-9.1-22.3-9.7c-11.9-0.8-23.8-1-35.4,2.8c-3.4,1.1-5.3,4.3-8.2,6
				c1.3-7,7-9.3,12.6-10.5c13.6-2.9,27.5-3,41.1,0.1C375.5,296.8,381.4,299.4,382.1,306.9z"/>
			<path class="st37" d="M279,303.9c-6.6-4-13.7-6.1-21.4-6.7c-11.2-0.8-22.4-0.7-33.4,2.1c-4.1,1-6.9,4.3-10.4,6.5
				c3.5-9.4,11.9-10.9,20.1-11.7c10.6-0.9,21.3-1.4,31.7,0.9C271.1,296.2,276.9,297.6,279,303.9z"/>
			<path class="st38" d="M307.9,312.9c-3.6-0.9-7-2.5-11-2.2c-6.3,0.5-7.7,1.6-7.9,7.9c0,1.4,0.4,3-0.9,4.2c0-2.6,0.3-5.3-0.1-7.9
				c-0.7-5.1,2-6.8,6.4-7.1c3.6-0.2,7.2-0.1,10.8,0.8C307.8,309.4,308.5,310.6,307.9,312.9z"/>
			<path class="st9" d="M326.4,492.9c-0.4,0-0.7,0-1.1,0c-11.1,0.9-22.3,0.1-33.4,0.4c-6.6,0.2-13.3-0.6-19.9,0.5c-0.7,0-1.4,0-2,0
				c-0.1-0.3-0.1-0.7-0.2-1c-9.5-10.8-12-23.6-10.9-37.5c0.3-4.1,0.1-8.3,0.1-12.5c7.5,2.8,14.9,5.9,22.9,7c7.4,1,14.8,0.9,22.3,0.9
				c8.4,0,16.4-1.7,24.1-4.8c2.8-1.1,6.3-0.3,8.3-3.5c1,3.6-0.6,7.1,1.1,10.2C338.8,467.5,336.4,481.3,326.4,492.9z"/>
			<path class="st39" d="M272,493.9c1.1-1.4,2.7-1,4.1-1c16.4,0,32.7,0,49.1,0.1c-0.1,0.3-0.1,0.6-0.2,1
				C307.4,493.9,289.7,493.9,272,493.9z"/>
			<path class="st40" d="M305.8,542.8c-2.1,1.3-4.2,2.2-6.8,2.1c-1.6-5.3,5.2-14.3,10.5-13.7c2,0.2,2.3,1.3,1.7,3.2
				C310.3,537.8,308.6,540.6,305.8,542.8z"/>
			<path class="st41" d="M277,397c-5.3-4.8-8.3-10.8-9.7-17.8c-0.4-2.2,0.1-4,2.2-5c1.9-1,3.4-0.3,4.3,1.7c4.8,5.3,11.1,6,17.8,5.6
				c5.5-0.3,11-0.3,16.5,0c6.6,0.4,12.2-1,16.2-6.6c3.8-1.2,5.7,0.5,4.7,4.7c-1.5,6.9-4.4,13.1-10.1,17.6c-1.8,0.2-3.1-1-4.6-1.7
				c-3.9-1.8-7.8-2.7-12-1.3c-2.3,0.7-4.6,0.9-6.9,0.1c-4.7-1.6-9.2-0.6-13.5,1.4C280.3,396.2,278.8,397.3,277,397z"/>
			<path class="st42" d="M324.2,375c-0.8,5.4-4.3,7.5-9.4,7.5c-10.6,0.1-21.2,0-31.8,0c-4.6,0-7.9-1.9-9.3-6.6
				c0.4-1.9,1.7-2.1,3.3-2.1c14.7,0,29.3,0,44,0C322.2,373.8,323.4,373.9,324.2,375z"/>
			<path class="st43" d="M281,394.9c4.1-2.6,8.4-3.7,13.2-2.1c2.5,0.8,5,1,7.7,0.1c6.4-2.1,12-0.1,16.9,4.3
				c-6.9,8.3-25.7,11.3-36.9,3.6C280.8,399,278.1,397.4,281,394.9z"/>
			<path class="st44" d="M281,394.9c-1.2,2.2,0.7,3.9,1,5.9c-2.1-0.6-3.4-2.4-5-3.8C278.4,396.5,279.2,394.7,281,394.9z"/>
			<path class="st45" d="M250.5,306.6c6.9,0.7,13,2.9,16.8,9.1c0.7,1.1,1.6,2.6,0.3,3.6c-1.2,0.9-2-0.6-2.9-1.2
				c-9.7-6.1-19.4-6-29,0.1c-0.9,0.6-1.6,2.1-2.9,0.8c-1.1-1.2,0-2.1,0.6-3.1C237.2,309.3,243.5,307.4,250.5,306.6z"/>
			<path class="st46" d="M345.9,313.9c-5.9-0.3-10.7,1.7-15.1,4.8c-0.8,0.5-1.5,1.5-2.5,0.5c-0.8-0.9-0.3-1.8,0.2-2.7
				c3.9-6.6,10-9.6,17.4-9.7c7.2-0.1,13.1,3,17.1,9.2c0.6,0.9,1.4,2.2,0.4,3.2c-1.2,1.2-2-0.3-2.9-0.8
				C356,315.4,351.2,313.4,345.9,313.9z"/>
		</g>
	</g>
</g>
</svg>
